<svg xmlns="http://www.w3.org/2000/svg" xmlns:xlink="http://www.w3.org/1999/xlink" width="90" height="104" viewBox="0 0 90 104">
  <defs>
    <circle id="a" cx="45" cy="40" r="32"/>
    <linearGradient id="b" x1="50%" x2="50%" y1="0%" y2="100%">
      <stop offset="0%" stop-color="#F4F4F2"/>
      <stop offset="100%" stop-color="#E6E4E1"/>
    </linearGradient>
    <path id="c" d="M20,51 L31,45 L51,55 L63,43 L74,52 L89,41 C89.5044545,44.7821295 90,48.2082461 90,52 C90,85.137085 69.8528137,104 45,104 C20.1471863,104 0,85.137085 0,52 C0,47.9648881 0.430396487,44.0202281 1,40 L20,51 Z"/>
  </defs>
  <g fill="none" fill-rule="evenodd">
    <path fill="#000000" d="M89,41 C89.5044545,44.7821295 90,48.3242887 90,52.1160426 C90,85.2531276 69.8528137,104.116043 45,104.116043 C20.1471863,104.116043 0,85.2531276 0,52.1160426 C0,48.0809307 0.430396487,44.0202281 1,40 C15.6157494,33.8327547 30.2824161,30.8327547 45,31 C59.7175839,31.1672453 74.3842506,34.5005786 89,41 Z"/>
    <use fill="#EEA911" xlink:href="#a"/>
    <circle cx="45" cy="40" r="36" stroke="#000000" stroke-width="8"/>
    <circle cx="27" cy="39" r="8" fill="#F91524" opacity=".3"/>
    <circle cx="63" cy="39" r="8" fill="#F91524" opacity=".3"/>
    <path fill="#000000" d="M51,50 C52.3333333,45.3333333 53,41.6666667 53,39 C53,35 49.418278,31 45,31 C40.581722,31 37,34 37,38 C37,42.6666667 41.6666667,46.6666667 51,50 Z"/>
    <use fill="url(#b)" xlink:href="#c"/>
    <path stroke="#000000" stroke-width="8" d="M4.2558248,46.5069509 C4.08393774,48.4560357 4,50.2378369 4,52 C4,81.4736093 21.0320713,100 45,100 C68.9679287,100 86,81.4736093 86,52 C86,50.7990246 85.9461794,49.5903759 85.8383951,48.278797 L73.8659652,57.0585789 L63.2687358,48.3881185 L51.7898122,59.8670421 L31.0805531,49.5124125 L19.9416142,55.5881974 L4.2558248,46.5069509 Z"/>
    <circle cx="30" cy="30" r="8" fill="#000000"/>
    <path fill="#FFFFFF" d="M31.658653,27.6177891 C30.1770421,26.3831134 29.5765006,24.8817596 30.3173061,24.2644217 C31.0581116,23.6470839 32.859736,24.1475351 34.341347,25.3822109 C35.8229579,26.6168866 36.4234994,28.1182404 35.6826939,28.7355783 C34.9418884,29.3529161 33.140264,28.8524649 31.658653,27.6177891 Z"/>
    <circle cx="60" cy="30" r="8" fill="#000000"/>
    <path fill="#FFFFFF" d="M61.658653,27.6177891 C60.1770421,26.3831134 59.5765006,24.8817596 60.3173061,24.2644217 C61.0581116,23.6470839 62.859736,24.1475351 64.341347,25.3822109 C65.8229579,26.6168866 66.4234994,28.1182404 65.6826939,28.7355783 C64.9418884,29.3529161 63.140264,28.8524649 61.658653,27.6177891 Z"/>
  </g>
</svg>
